<svg display="none" xmlns="http://www.w3.org/2000/svg">
	<symbol id="profession" viewBox="0 0 28 28">
		<g>
			<path d="M8.29633 10.4732C10.5628 10.4732 12.5414 9.00014 13.2192 6.80834C13.3762 6.30273 13.4559 5.77383 13.4559 5.23658C13.4559 2.34903 11.1413 0 8.29633 0C5.45132 0 3.13672 2.34903 3.13672 5.23658C3.13672 5.75814 3.21217 6.27159 3.36028 6.76023C4.02337 8.98115 6.00705 10.4732 8.29633 10.4732ZM8.29633 1.03704C10.5694 1.03704 12.4189 2.92097 12.4189 5.23658C12.4189 5.66927 12.3549 6.09462 12.2285 6.50123C11.6857 8.25655 10.1056 9.43612 8.29633 9.43612C6.46911 9.43612 4.88495 8.24161 4.35326 6.46148C4.23427 6.06829 4.17376 5.6561 4.17376 5.23658C4.17376 2.92097 6.02326 1.03704 8.29633 1.03704Z" fill="black"/>
			<path d="M26.883 16.5926H23.8519V15.5556C23.8519 14.974 23.2695 14.5185 22.5267 14.5185H16.8807C16.7812 14.5185 16.6853 14.528 16.5926 14.5435V14.3838C16.5926 13.024 15.5302 11.888 14.2198 11.8024L11.4872 11.3773C11.2041 11.3355 10.9393 11.5269 10.895 11.81C10.8946 11.8124 10.8956 11.8147 10.8953 11.8171L9.53683 16.1227L9.37384 13.9918C9.64022 13.9701 9.85185 13.7535 9.85185 13.4815V11.9259C9.85185 11.6396 9.61968 11.4074 9.33333 11.4074H7.25926C6.97291 11.4074 6.74074 11.6396 6.74074 11.9259V13.4815C6.74074 13.7535 6.95237 13.9701 7.21875 13.9918L7.05576 16.1227L5.69731 11.8171C5.69696 11.8147 5.69801 11.8124 5.69763 11.81C5.65357 11.5267 5.38723 11.3353 5.10543 11.3773L2.41815 11.7976C1.0621 11.888 0 13.024 0 14.3838V27.4815C0 27.7678 0.232169 28 0.518519 28H11.9259H27.4815C27.7681 28 28 27.7678 28 27.4815V21.7778V17.6296C28 17.0577 27.4987 16.5926 26.883 16.5926ZM26.963 17.6352V21.2593H12.4444L12.4381 17.6585C12.4424 17.6529 12.4715 17.6296 12.5252 17.6296H26.883C26.9331 17.6296 26.9609 17.6476 26.963 17.6352ZM23.3333 22.2963H24.3704V23.3333H23.3333V22.2963ZM15.5556 22.2963H16.5926V23.3333H15.5556V22.2963ZM22.5267 15.5556C22.668 15.5556 22.7677 15.5938 22.8148 15.6234V16.5926H16.5926V15.6234C16.6397 15.5938 16.7394 15.5556 16.8807 15.5556H22.5267ZM15.5556 14.3838V15.5556V16.5926H12.5242C11.9085 16.5926 11.4074 17.0577 11.4074 17.6296V21.7778V26.963H8.81481V21.8575L11.7761 12.4716L14.1056 12.8321C14.9185 12.8865 15.5556 13.5681 15.5556 14.3838ZM7.77778 12.4444H8.81481V12.963H7.77778V12.4444ZM8.25813 14H8.33446L8.69971 18.776L8.2963 20.0546L7.89288 18.776L8.25813 14ZM1.03704 14.3838C1.03704 13.5681 1.67405 12.8865 2.53234 12.8273L4.81655 12.4719L7.77778 21.8575V26.963H1.03704V14.3838ZM26.963 26.963H12.4444V22.2963H14.5185V23.8519C14.5185 24.1382 14.7504 24.3704 15.037 24.3704H17.1111C17.3977 24.3704 17.6296 24.1382 17.6296 23.8519V22.2963H22.2963V23.8519C22.2963 24.1382 22.5282 24.3704 22.8148 24.3704H24.8889C25.1755 24.3704 25.4074 24.1382 25.4074 23.8519V22.2963H26.963V26.963Z" fill="black"/>
		</g>
	</symbol>
	<symbol id="about" viewBox="0 0 24 31">
		<g>
			<path d="M17.0625 0.195395C16.9438 0.0717928 16.7805 0.00148026 16.6093 0H3.17245C1.425 0.00444079 0.00814143 1.41785 0 3.1653V26.8979C0.00814143 28.6453 1.425 30.0587 3.17245 30.0632H20.8275C22.575 30.0587 23.9919 28.6453 24 26.8979V7.58734C23.9973 7.42155 23.9309 7.2634 23.8142 7.14548L17.0625 0.195395ZM17.2421 2.19646L21.8605 6.94737H17.8724C17.5278 6.95082 17.2456 6.67426 17.2421 6.32961V2.19646ZM20.8275 28.8H3.17245C2.1222 28.7965 1.27056 27.9481 1.26316 26.8979V3.1653C1.27056 2.11505 2.1222 1.26661 3.17245 1.26316H15.9789V6.32418C15.9802 7.36702 16.8264 8.21176 17.8695 8.21053H22.7368V26.8979C22.7294 27.9481 21.8778 28.7965 20.8275 28.8Z" fill="black"/>
			<path d="M19.0749 24.1263H4.536C4.18715 24.1263 3.90442 24.409 3.90442 24.7579C3.90442 25.1067 4.18715 25.3895 4.536 25.3895H19.0749C19.4237 25.3895 19.7065 25.1067 19.7065 24.7579C19.7065 24.409 19.4237 24.1263 19.0749 24.1263Z" fill="black"/>
			<path d="M4.536 21.9789H13.2402C13.589 21.9789 13.8718 21.6962 13.8718 21.3474C13.8718 20.9985 13.589 20.7158 13.2402 20.7158H4.536C4.18715 20.7158 3.90442 20.9985 3.90442 21.3474C3.90442 21.6962 4.18715 21.9789 4.536 21.9789Z" fill="black"/>
			<path d="M4.98851 17.9368H13.7379C14.0867 17.9368 14.4 17.6433 14.4 17.2944V16.4958C14.3916 14.0743 12.4219 12.1182 10.0002 12.1263H8.72593C6.31926 12.1206 4.36359 14.0672 4.35792 16.4741V17.2944C4.35644 17.645 4.63769 17.9317 4.98851 17.9368ZM5.62107 16.4958C5.62255 14.7814 7.01153 13.3917 8.72593 13.3895H10.0002C11.7129 13.3895 13.1369 14.7831 13.1369 16.4958V16.6737H5.62107V16.4958Z" fill="black"/>
			<path d="M9.37139 11.8611C11.109 11.8611 12.5174 10.4526 12.5174 8.71505C12.5174 6.97772 11.109 5.56925 9.37139 5.56925C7.63406 5.56925 6.22559 6.97772 6.22559 8.71505C6.22559 10.4526 7.63406 11.8611 9.37139 11.8611ZM9.37139 6.83241C10.4113 6.83241 11.2543 7.67517 11.2543 8.71505C11.2543 9.75494 10.4113 10.5979 9.37139 10.5979C8.33151 10.5979 7.48874 9.75494 7.48874 8.71505C7.48874 7.67517 8.33151 6.83241 9.37139 6.83241Z" fill="black"/>
		</g>
	</symbol>
	<symbol id="hobby" viewBox="0 0 26 25">
		<g>
			<path d="M7.12592 9.56603C7.1259 9.62302 7.13802 9.67946 7.16159 9.73212C7.18516 9.78478 7.21972 9.83263 7.26328 9.87293C7.30685 9.91323 7.35857 9.94519 7.41549 9.967C7.47242 9.9888 7.53343 10 7.59504 10H10.3406C10.4022 10 10.4632 9.9888 10.5201 9.967C10.5771 9.94519 10.6288 9.91323 10.6723 9.87293C10.7159 9.83263 10.7505 9.78478 10.774 9.73212C10.7976 9.67946 10.8097 9.62302 10.8097 9.56603V7.4216C11.4239 7.31972 11.9798 7.02132 12.3802 6.5786C12.7806 6.13588 13 5.57702 13 4.99979C13 4.42255 12.7806 3.8637 12.3802 3.42097C11.9798 2.97825 11.4239 2.67985 10.8097 2.57798V0.433972C10.8097 0.376978 10.7976 0.320539 10.774 0.26788C10.7505 0.215221 10.7159 0.167374 10.6723 0.127073C10.6288 0.0867721 10.5771 0.0548066 10.5201 0.0330029C10.4632 0.0111992 10.4022 -1.53789e-05 10.3406 1.58282e-08H2.06454C1.5172 0.000508867 0.992434 0.201859 0.605383 0.559869C0.218332 0.917878 0.000613515 1.40331 1.71102e-08 1.90964V9.56603C-1.66245e-05 9.62302 0.0121063 9.67946 0.0356759 9.73212C0.0592455 9.78478 0.0938 9.83263 0.137365 9.87293C0.18093 9.91323 0.232653 9.94519 0.289576 9.967C0.3465 9.9888 0.40751 10 0.469121 10H3.21467C3.27628 10 3.33729 9.9888 3.39421 9.967C3.45114 9.94519 3.50286 9.91323 3.54642 9.87293C3.58999 9.83263 3.62454 9.78478 3.64811 9.73212C3.67168 9.67946 3.68381 9.62302 3.68379 9.56603C3.68875 9.14679 3.87226 8.74629 4.19449 8.45146C4.51671 8.15662 4.95164 7.99126 5.40485 7.99126C5.85807 7.99126 6.293 8.15662 6.61522 8.45146C6.93744 8.74629 7.12095 9.14679 7.12592 9.56603ZM2.78702 9.13206H0.938241V1.90964C0.938647 1.63344 1.05745 1.36867 1.26859 1.17339C1.47973 0.978105 1.76598 0.868261 2.06454 0.867944H9.87146V2.97381C9.87145 3.0308 9.88357 3.08724 9.90714 3.1399C9.93071 3.19256 9.96526 3.2404 10.0088 3.28071C10.0524 3.32101 10.1041 3.35297 10.161 3.37478C10.218 3.39658 10.279 3.40779 10.3406 3.40778C10.7937 3.41248 11.2265 3.58228 11.5451 3.88033C11.8637 4.17839 12.0424 4.58065 12.0423 4.99981C12.0423 5.41898 11.8636 5.82123 11.545 6.11927C11.2264 6.41732 10.7936 6.58711 10.3405 6.5918C10.2789 6.59179 10.2179 6.603 10.161 6.62481C10.1041 6.64662 10.0524 6.67858 10.0088 6.71888C9.96525 6.75918 9.9307 6.80703 9.90713 6.85969C9.88357 6.91234 9.87145 6.96878 9.87146 7.02577V9.13206H8.0227C7.90819 8.56722 7.58385 8.05719 7.1058 7.69019C6.62776 7.32319 6.02608 7.12231 5.40485 7.12231C4.78363 7.12231 4.18195 7.32319 3.7039 7.69019C3.22585 8.05719 2.90152 8.56722 2.78701 9.13206H2.78702Z" fill="black"/>
			<path d="M23.9037 4H15.5001C15.4376 3.99998 15.3756 4.01247 15.3178 4.03676C15.26 4.06104 15.2075 4.09665 15.1633 4.14153C15.119 4.18642 15.0839 4.23971 15.06 4.29836C15.0361 4.35701 15.0238 4.41987 15.0238 4.48334V7.31214C15.0238 7.37561 15.0361 7.43847 15.06 7.49712C15.0839 7.55577 15.119 7.60906 15.1633 7.65395C15.2075 7.69883 15.26 7.73444 15.3178 7.75872C15.3756 7.78301 15.4376 7.7955 15.5001 7.79548C15.9602 7.80066 16.3997 7.98975 16.7233 8.32172C17.0468 8.65369 17.2283 9.10174 17.2283 9.56863C17.2283 10.0355 17.0468 10.4836 16.7233 10.8155C16.3997 11.1475 15.9602 11.3366 15.5001 11.3417C15.4375 11.3417 15.3756 11.3542 15.3178 11.3785C15.26 11.4028 15.2075 11.4384 15.1632 11.4833C15.119 11.5282 15.0839 11.5815 15.06 11.6401C15.0361 11.6987 15.0238 11.7616 15.0238 11.8251V13.8623H13.1463C13.0344 13.2296 12.7069 12.6569 12.221 12.2445C11.7351 11.8321 11.1217 11.6061 10.4882 11.6061C9.85473 11.6061 9.2414 11.8321 8.75549 12.2445C8.26959 12.6569 7.94206 13.2296 7.83018 13.8623H5.47635C5.41379 13.8623 5.35184 13.8748 5.29404 13.8991C5.23624 13.9233 5.18372 13.9589 5.13948 14.0038C5.09525 14.0487 5.06016 14.102 5.03623 14.1607C5.01229 14.2193 4.99998 14.2822 5 14.3456V22.8731C5.00062 23.437 5.22169 23.9777 5.61471 24.3764C6.00772 24.7752 6.54057 24.9994 7.09635 25H23.9037C24.4594 24.9994 24.9923 24.7752 25.3853 24.3764C25.7783 23.9777 25.9994 23.437 26 22.8731V6.1269C25.9994 5.56297 25.7783 5.02231 25.3853 4.62357C24.9923 4.22482 24.4594 4.00057 23.9037 4ZM18.2003 9.56884C18.1995 8.92616 17.9765 8.30412 17.5701 7.81116C17.1638 7.3182 16.5998 6.98558 15.9765 6.8713V4.96669H23.9037C24.2068 4.96704 24.4975 5.08939 24.7119 5.30689C24.9263 5.52439 25.0469 5.81928 25.0473 6.1269V13.8623H22.7358C22.6733 13.8623 22.6113 13.8748 22.5535 13.8991C22.4957 13.9233 22.4432 13.9589 22.3989 14.0038C22.3547 14.0487 22.3196 14.102 22.2957 14.1607C22.2718 14.2193 22.2594 14.2822 22.2595 14.3456C22.2543 14.8125 22.0679 15.2585 21.7407 15.5867C21.4135 15.915 20.972 16.0991 20.5119 16.0991C20.0517 16.0991 19.6102 15.915 19.283 15.5867C18.9558 15.2584 18.7695 14.8124 18.7643 14.3456C18.7643 14.2821 18.752 14.2193 18.7281 14.1606C18.7041 14.102 18.669 14.0487 18.6248 14.0038C18.5806 13.9589 18.5281 13.9233 18.4703 13.8991C18.4125 13.8748 18.3505 13.8623 18.288 13.8623H15.9765V12.2659C16.5997 12.1517 17.1636 11.8191 17.57 11.3263C17.9764 10.8334 18.1995 10.2115 18.2003 9.56884ZM5.9527 22.8731V14.829H8.26441C8.32697 14.829 8.38892 14.8165 8.44672 14.7922C8.50452 14.7679 8.55704 14.7323 8.60128 14.6875C8.64551 14.6426 8.6806 14.5893 8.70453 14.5306C8.72846 14.472 8.74077 14.4091 8.74076 14.3456C8.74152 13.8759 8.92597 13.4256 9.2536 13.0937C9.58123 12.7619 10.0253 12.5754 10.4882 12.5754C10.9512 12.5754 11.3952 12.7619 11.7228 13.0937C12.0505 13.4256 12.2349 13.8759 12.2357 14.3456C12.2357 14.4091 12.248 14.472 12.2719 14.5306C12.2958 14.5893 12.3309 14.6426 12.3752 14.6875C12.4194 14.7323 12.4719 14.7679 12.5297 14.7922C12.5875 14.8165 12.6495 14.829 12.712 14.829H15.0237V16.734C14.4001 16.8475 13.8356 17.1799 13.429 17.6729C13.0225 18.166 12.7997 18.7885 12.7997 19.4314C12.7997 20.0743 13.0225 20.6967 13.429 21.1898C13.8356 21.6829 14.4001 22.0152 15.0237 22.1287V24.0333H7.09635C6.79318 24.0329 6.50253 23.9106 6.28813 23.6931C6.07374 23.4756 5.95311 23.1807 5.9527 22.8731ZM23.9037 24.0333H15.9765V21.6879C15.9765 21.6244 15.9642 21.5615 15.9402 21.5029C15.9163 21.4442 15.8812 21.3909 15.837 21.346C15.7927 21.3012 15.7402 21.2656 15.6824 21.2413C15.6246 21.217 15.5627 21.2045 15.5001 21.2045C15.0367 21.2045 14.5922 21.0177 14.2645 20.6852C13.9368 20.3526 13.7527 19.9016 13.7527 19.4314C13.7527 18.9611 13.9368 18.5101 14.2645 18.1776C14.5922 17.8451 15.0367 17.6583 15.5001 17.6583C15.5627 17.6583 15.6246 17.6458 15.6824 17.6215C15.7402 17.5972 15.7927 17.5616 15.837 17.5167C15.8812 17.4718 15.9163 17.4185 15.9402 17.3599C15.9642 17.3012 15.9765 17.2384 15.9765 17.1749V15.1372H17.8537C17.9655 15.77 18.293 16.3428 18.779 16.7553C19.2649 17.1679 19.8783 17.3939 20.5119 17.3939C21.1455 17.3939 21.7589 17.1679 22.2448 16.7553C22.7308 16.3428 23.0583 15.77 23.1701 15.1372H25.0473V22.8731C25.0469 23.1807 24.9263 23.4756 24.7119 23.6931C24.4975 23.9106 24.2068 24.0329 23.9037 24.0333V24.0333Z" fill="black"/>
		</g>
	</symbol>
	<symbol id="arrow-right" viewBox="0 0 18 29">
		<g>
			<path d="M15.7215 13.5159L4.55597 2.35054C4.29772 2.09209 3.95299 1.94971 3.58541 1.94971C3.21783 1.94971 2.87309 2.09209 2.61485 2.35054L1.79258 3.1726C1.25753 3.70826 1.25753 4.57887 1.79258 5.11372L11.1686 14.4897L1.78218 23.8761C1.52393 24.1345 1.38135 24.4791 1.38135 24.8464C1.38135 25.2142 1.52393 25.5587 1.78218 25.8174L2.60444 26.6393C2.86289 26.8977 3.20742 27.0401 3.575 27.0401C3.94259 27.0401 4.28732 26.8977 4.54557 26.6393L15.7215 15.4637C15.9804 15.2045 16.1225 14.8583 16.1217 14.4903C16.1225 14.1209 15.9804 13.7749 15.7215 13.5159Z" fill="white"/>
			<path fill-rule="evenodd" clip-rule="evenodd" d="M16.4289 12.809C16.8768 13.2573 17.1225 13.8582 17.1217 14.4903C17.1225 15.1214 16.8765 15.7223 16.4292 16.1703L5.25295 27.3461C5.25285 27.3462 5.25305 27.346 5.25295 27.3461C4.80592 27.7933 4.20601 28.0401 3.575 28.0401C2.94371 28.0401 2.34448 27.7934 1.89751 27.3465L1.07451 26.5239C0.628496 26.0772 0.381348 25.4783 0.381348 24.8464C0.381348 24.2148 0.62857 23.6158 1.07479 23.1692L9.75434 14.4897L1.08561 5.82096C1.08557 5.82092 1.08565 5.82101 1.08561 5.82096C0.15969 4.89525 0.160375 3.39165 1.08507 2.4659L1.90746 1.64371C2.35449 1.19653 2.95443 0.949707 3.58541 0.949707C4.21642 0.949707 4.81604 1.19619 5.26307 1.64342L16.4289 12.809ZM2.61485 2.35054L1.79258 3.1726C1.25753 3.70826 1.25753 4.57887 1.79258 5.11372L11.1686 14.4897L1.78218 23.8761C1.52393 24.1345 1.38135 24.4791 1.38135 24.8464C1.38135 25.2142 1.52393 25.5587 1.78218 25.8174L2.60444 26.6393C2.86289 26.8977 3.20742 27.0401 3.575 27.0401C3.94259 27.0401 4.28732 26.8977 4.54557 26.6393L15.7215 15.4637C15.9804 15.2045 16.1225 14.8583 16.1217 14.4903C16.1225 14.1209 15.9804 13.7749 15.7215 13.5159L4.55597 2.35054C4.29772 2.09209 3.95299 1.94971 3.58541 1.94971C3.21783 1.94971 2.87309 2.09209 2.61485 2.35054Z" fill="black"/>
		</g>
	</symbol>
	<symbol id="arrow-left" viewBox="0 0 18 29">
		<g>
			<path d="M2.37139 15.4739L13.5369 26.6392C13.7952 26.8977 14.1399 27.04 14.5075 27.04C14.8751 27.04 15.2198 26.8977 15.478 26.6392L16.3003 25.8171C16.8354 25.2815 16.8354 24.4109 16.3003 23.876L6.92434 14.5001L16.3107 5.11368C16.569 4.85523 16.7115 4.51069 16.7115 4.14332C16.7115 3.77553 16.569 3.431 16.3107 3.17235L15.4885 2.35049C15.23 2.09204 14.8855 1.94966 14.5179 1.94966C14.1503 1.94966 13.8056 2.09204 13.5473 2.35049L2.37139 13.526C2.11254 13.7853 1.97036 14.1314 1.97117 14.4994C1.97036 14.8689 2.11254 15.2148 2.37139 15.4739Z" fill="white"/>
			<path fill-rule="evenodd" clip-rule="evenodd" d="M1.66401 16.1807C1.21611 15.7324 0.970354 15.1315 0.971174 14.4994C0.970349 13.8683 1.21642 13.2675 1.66373 12.8195L12.8399 1.64366C12.84 1.64357 12.8398 1.64376 12.8399 1.64366C13.287 1.19643 13.8869 0.949661 14.5179 0.949661C15.1492 0.949661 15.7484 1.19633 16.1954 1.64321L17.0184 2.4658C17.4644 2.91252 17.7115 3.51141 17.7115 4.14332C17.7115 4.77491 17.4643 5.37393 17.0181 5.8205L8.33855 14.5001L17.0073 23.1688C17.0073 23.1688 17.0072 23.1687 17.0073 23.1688C17.9332 24.0945 17.9325 25.5981 17.0078 26.5239L16.1854 27.346C15.7384 27.7932 15.1385 28.04 14.5075 28.04C13.8765 28.04 13.2769 27.7936 12.8298 27.3463L1.66401 16.1807ZM15.478 26.6392L16.3003 25.8171C16.8354 25.2815 16.8354 24.4109 16.3003 23.876L6.92434 14.5001L16.3107 5.11368C16.569 4.85523 16.7115 4.51069 16.7115 4.14332C16.7115 3.77553 16.569 3.431 16.3107 3.17235L15.4885 2.35049C15.23 2.09204 14.8855 1.94966 14.5179 1.94966C14.1503 1.94966 13.8056 2.09204 13.5473 2.35049L2.37139 13.526C2.11253 13.7853 1.97036 14.1314 1.97117 14.4994C1.97036 14.8689 2.11253 15.2148 2.37139 15.4739L13.5369 26.6392C13.7952 26.8977 14.1399 27.04 14.5075 27.04C14.8751 27.04 15.2198 26.8977 15.478 26.6392Z" fill="black"/>
		</g>
	</symbol>
	<symbol id="info" viewBox="0 0 11 24">
		<g>
			<path d="M10.2866 21.41L9.9513 22.7808C8.94528 23.1779 8.14168 23.4801 7.54327 23.6879C6.94423 23.8963 6.24817 24 5.4551 24C4.23722 24 3.28993 23.7017 2.6143 23.1091C1.93868 22.5141 1.60076 21.7602 1.60076 20.8456C1.60076 20.4915 1.62528 20.1274 1.67626 19.7563C1.72767 19.3849 1.8094 18.9665 1.92126 18.4989L3.1785 14.0489C3.29036 13.6228 3.38543 13.2191 3.46157 12.8373C3.53879 12.4578 3.57601 12.1087 3.57601 11.7945C3.57601 11.2262 3.45835 10.8287 3.2241 10.6052C2.98986 10.3824 2.54289 10.2692 1.87931 10.2692C1.5543 10.2692 1.22025 10.3213 0.879751 10.4219C0.537745 10.523 0.245427 10.6207 0 10.7115L0.336198 9.33956C1.15981 9.00422 1.94707 8.71706 2.70013 8.47874C3.45318 8.23976 4.16473 8.12017 4.83777 8.12017C6.04727 8.12017 6.98058 8.41249 7.63598 8.99712C8.29139 9.58219 8.61898 10.3406 8.61898 11.2752C8.61898 11.4686 8.59747 11.8093 8.55122 12.2963C8.50605 12.7844 8.42195 13.2315 8.29934 13.6383L7.04747 18.0704C6.94487 18.4264 6.85259 18.8333 6.77236 19.2913C6.68955 19.7462 6.64997 20.0938 6.64997 20.327C6.64997 20.9155 6.78118 21.3173 7.04425 21.5309C7.30925 21.7445 7.76569 21.8507 8.41399 21.8507C8.71835 21.8507 9.06466 21.7967 9.44947 21.6907C9.83321 21.5847 10.1131 21.4915 10.2866 21.41ZM10.6041 2.80273C10.6041 3.57493 10.3131 4.23442 9.72824 4.77668C9.14489 5.32088 8.44196 5.5932 7.61964 5.5932C6.79473 5.5932 6.09007 5.32088 5.50006 4.77668C4.91112 4.23421 4.616 3.57493 4.616 2.80273C4.616 2.03203 4.91112 1.37147 5.50006 0.82232C6.089 0.274035 6.79495 0 7.61964 0C8.44174 0 9.14489 0.27468 9.72824 0.82232C10.3135 1.37147 10.6041 2.03225 10.6041 2.80273Z" fill="black"/>
	</symbol>
</svg>